Coordinates
version=1
nRows=11
nColumns=36
inDegrees=yes

Units are S.I. units (second, meters, Newtons, ...)
If the header above contains a line with 'inDegrees', this indicates whether rotational values are in degrees (yes) or radians (no).

endheader
time	pelvis_tilt	pelvis_list	pelvis_rotation	pelvis_tx	pelvis_ty	pelvis_tz	hip_flexion_r	hip_adduction_r	hip_rotation_r	knee_angle_r	knee_angle_r_beta	ankle_angle_r	subtalar_angle_r	mtp_angle_r	hip_flexion_l	hip_adduction_l	hip_rotation_l	knee_angle_l	knee_angle_l_beta	ankle_angle_l	subtalar_angle_l	mtp_angle_l	lumbar_extension	lumbar_bending	lumbar_rotation	arm_flex_r	arm_add_r	arm_rot_r	elbow_flex_r	pro_sup_r	arm_flex_l	arm_add_l	arm_rot_l	elbow_flex_l	pro_sup_l
     45.00000000	     -1.09929444	    -11.14744977	      3.17774772	      0.69706397	      1.02321894	      0.86327548	     14.12062751	     12.88051129	     -9.08297405	     16.93602579	      0.29558941	      8.13575945	     -9.79977841	     -7.49999987	      5.51698317	    -15.26530046	      5.25775806	     57.01507101	      0.99510071	    -14.44031365	     -9.15870266	     -7.49999987	     -7.65161201	     17.28562482	      0.61682974	      2.79646998	    -13.01518600	     -5.27940588	     16.31712198	     76.23686929	      5.04493934	     -3.33004199	     -9.05734094	     28.60366526	     72.54123879
     45.01666670	     -0.61609884	    -10.53966687	      3.43142625	      0.69086491	      1.02567089	      0.86606816	     12.42976719	     12.44802357	     -9.25784256	     16.71739675	      0.29177362	      9.07153413	     -9.20725029	     -7.49999987	      7.31629790	    -14.44512518	      6.26928227	     59.16865093	      1.03268777	     -9.69807041	    -10.96470175	     -7.49999987	     -8.60075571	     16.46568827	      0.95187827	      3.64825656	    -12.79142914	     -4.91365786	     16.97933226	     75.41552058	      4.81539834	     -3.42986299	     -8.38542730	     26.67553239	     72.21260543
     45.03333330	      0.18908546	     -9.55638925	      3.55815011	      0.68317295	      1.02894220	      0.87083544	     10.36628561	     11.73608001	     -9.21318341	     16.31100674	      0.28468077	      9.59389716	     -8.82434042	     -7.49999987	      8.95773024	    -13.22350069	      7.08059422	     61.08484067	      1.06613159	     -5.28911628	    -13.00883633	     -7.49999987	    -10.18835555	     15.14785670	      1.34670293	      4.91233500	    -12.44795852	     -4.61894136	     17.72290829	     74.49581162	      4.79935103	     -3.75047662	     -7.94193492	     25.07833866	     71.67081098
     45.05000000	      1.50012851	     -8.37394055	      3.76542313	      0.67656524	      1.03382447	      0.87647455	      7.72432251	     10.85294407	     -9.54250610	     15.58679708	      0.27204093	     10.11710614	     -7.55205361	     -7.49999987	     10.25593862	    -11.85203261	      7.77008591	     62.58799841	      1.09236664	     -2.11547138	    -15.06114016	     -7.49999987	    -12.50930861	     13.60904405	      1.97464543	      6.15225322	    -12.20239620	     -4.28641007	     18.99886323	     74.40178940	      5.09056669	     -4.29279492	     -6.78748378	     23.63802127	     72.01389065
     45.06666670	      3.05641559	     -6.97691374	      4.04950410	      0.67202329	      1.03971323	      0.88130523	      4.70258500	      9.81350459	     -9.96199038	     14.40452459	      0.25140638	     10.30973467	     -6.23415886	     -7.49999987	     11.31907148	    -10.38520733	      8.20082582	     63.39431243	      1.10643948	     -0.13328965	    -16.41179490	     -7.49999987	    -15.09038891	     11.82907612	      2.37542972	      7.60891914	    -11.77247404	     -4.58675860	     20.14080122	     74.89014943	      5.38426861	     -4.83313544	     -6.09396154	     22.31696060	     72.72693710
     45.08333330	      4.48060915	     -5.51575748	      4.19445009	      0.66966813	      1.04409894	      0.88426900	      1.68943547	      8.69052760	    -10.42887530	     12.93167800	      0.22570036	     10.77011108	     -4.28840334	     -7.49999987	     12.33088644	     -8.99550238	      8.12709661	     63.35461511	      1.10574663	      0.94894016	    -17.00372780	     -7.49999987	    -17.42044550	      9.97580770	      2.93647702	      8.81899350	    -11.46496992	     -4.89704085	     21.33289025	     75.60630930	      5.65161353	     -5.18940837	     -5.78074367	     21.05819456	     73.30587724
     45.10000000	      5.47859693	     -4.19443145	      4.20214912	      0.66877531	      1.04493388	      0.88573864	     -0.92696650	      7.64339515	    -10.79148107	     11.43353183	      0.19955278	     11.36345980	     -2.37211382	     -7.49999987	     13.49527615	     -7.84614337	      7.56366370	     62.41974756	      1.08943011	      1.67717839	    -16.89246420	     -7.49999987	    -19.01970446	      8.32360287	      3.06472880	     10.12804752	    -11.11038781	     -4.88173275	     22.05206451	     75.85452985	      5.39555221	     -5.46909703	     -6.00518593	     19.94134209	     73.41825244
     45.11666670	      6.00208071	     -3.17169806	      4.14356684	      0.66800357	      1.04316020	      0.88664805	     -3.00679130	      6.80654068	    -11.11201816	     10.09632603	      0.17621413	     12.00554636	     -0.58126993	     -7.49999987	     14.79790874	     -7.01806086	      6.71504864	     60.68958237	      1.05923303	      2.00561077	    -16.46972018	     -7.49999987	    -19.98927802	      6.99960181	      3.40992258	     10.97892627	    -11.07716476	     -4.76847215	     23.21059228	     76.07537682	      4.90880322	     -5.56297119	     -6.47227308	     19.16542518	     73.38000464
     45.13333330	      6.06284370	     -2.43377834	      3.96347931	      0.66634142	      1.04148180	      0.88816631	     -4.42964448	      6.19777419	    -11.09773504	      9.10322620	      0.15888127	     12.43897203	      0.30174725	     -7.49999987	     16.16392566	     -6.52739920	      5.58299456	     58.29098055	      1.01736953	      2.02119510	    -15.96720599	     -7.49999987	    -20.32627151	      5.96402826	      3.77733799	     11.66155328	    -11.21625732	     -4.44167911	     24.57120343	     75.29161747	      4.16204629	     -5.62140067	     -7.17587403	     18.52127390	     72.34950916
     45.15000000	      5.91076633	     -1.95039643	      3.74030181	      0.66353518	      1.04139969	      0.88991037	     -5.41863535	      5.82029143	    -10.77566382	      8.41182912	      0.14681411	     12.53588705	      0.34753905	     -7.49999987	     17.41404407	     -6.34338733	      4.36026694	     55.48317517	      0.96836409	      1.99804859	    -15.40426930	     -7.49999987	    -20.34663522	      5.22958250	      4.05021845	     12.42196203	    -11.50437371	     -3.85882843	     25.78352814	     75.29481814	      3.22524313	     -5.72062037	     -7.67138577	     17.84928941	     72.00170387
     45.16666670	      5.69233587	     -1.59002944	      3.56461795	      0.66019327	      1.04219675	      0.89050893	     -6.18978937	      5.52169119	    -10.40108218	      7.88630913	      0.13764206	     12.51836142	      0.22988397	     -7.49999987	     18.47800344	     -6.25417250	      3.21779418	     52.20548603	      0.91115762	      2.08580171	    -14.81587932	     -7.49999987	    -20.30295724	      4.66271914	      4.23545001	     13.10541185	    -11.80982218	     -3.56834481	     27.18541513	     74.92031166	      1.92347213	     -5.82468283	     -7.93072766	     17.81799843	     71.48843934
